<?xml version="1.0" standalone="no"?>
<!DOCTYPE svg PUBLIC "-//W3C//DTD SVG 20010904//EN"
 "http://www.w3.org/TR/2001/REC-SVG-20010904/DTD/svg10.dtd">
<svg version="1.0" xmlns="http://www.w3.org/2000/svg"
 width="70.000000pt" height="70.000000pt" viewBox="0 0 70.000000 70.000000"
 preserveAspectRatio="xMidYMid meet">
<metadata>
Created by potrace 1.11, written by Peter Selinger 2001-2013
</metadata>
<g transform="translate(0.000000,70.000000) scale(0.100000,-0.100000)"
fill="#000000" stroke="none">
<path d="M0 350 l0 -350 350 0 350 0 0 350 0 350 -350 0 -350 0 0 -350z m241
55 c62 -21 89 -48 89 -88 0 -39 -15 -57 -47 -57 -22 0 -22 1 -5 29 15 28 15
31 -1 49 -22 24 -73 39 -159 48 -49 5 -72 12 -85 27 -18 20 -18 20 72 13 50
-3 111 -13 136 -21z m429 16 c0 -18 -28 -28 -110 -39 -47 -6 -98 -16 -113 -23
-35 -16 -45 -53 -22 -79 18 -19 17 -20 -12 -20 -21 0 -33 7 -43 25 -41 76 68
140 248 144 28 0 52 -3 52 -8z m-470 -94 c28 -14 38 -46 18 -58 -7 -5 -35 -9
-61 -9 -45 0 -49 2 -63 35 -7 19 -14 37 -14 40 0 10 96 4 120 -8z m405 -23
c-8 -20 -15 -38 -15 -40 0 -2 -25 -4 -55 -4 -42 0 -56 4 -64 18 -19 36 22 60
102 61 l47 1 -15 -36z"/>
</g>
</svg>
